# xmcd
#
# Track frame offsets: 
#        150
#        16632
#        37345
#        57485
#        74625
#        96050
#        109995
#        126725
#        148307
#        166445
#        189577
#        212105
#        231135
#
# Disc length: 3455 seconds
#
# Revision: 1
# Processed by: cddbd v1.5.2PL0 Copyright (c) Steve Scherf et al.
# Submitted via: ExactAudioCopy v1.1
#
DISCID=cf0d7d0d
DTITLE=Guitar Shorty - I Go Wild!
DYEAR=2001
DGENRE=Blues
TTITLE0=Loosen Up
TTITLE1=Coffee and Cigarettes
TTITLE2=Maybe She'll Miss Me
TTITLE3=If You Can't Lie No Better
TTITLE4=Just Warming Up
TTITLE5=Go Wild!
TTITLE6=Don't Stop (I Just Started)
TTITLE7=One and Only Man
TTITLE8=Life With You
TTITLE9=Lesson In Love
TTITLE10=Put It All In There
TTITLE11=In The Morning
TTITLE12=The Netherlands
EXTD=YEAR: 2001
EXTT0=
EXTT1=
EXTT2=
EXTT3=
EXTT4=
EXTT5=
EXTT6=
EXTT7=
EXTT8=
EXTT9=
EXTT10=
EXTT11=
EXTT12=
PLAYORDER=
